  0
SECTION
  2
HEADER
  9
$MEASUREMENT
  70
  1
  9
$INSUNITS
  70
  4
  0
ENDSEC
  0
SECTION
  2
TABLES
  0
TABLE
  2
LTYPE
 70
     1
  0
LTYPE
  2
CONTINUOUS
 70
    64
  3
Ausgezogene Linie
 72
    65
 73
     0
 40
0.0
  0
ENDTAB
  0
TABLE
  2
LAYER
 70
     3
  0
LAYER
  2
Contour
 70
    64
 62
     7
  6
CONTINUOUS
  0
LAYER
  2
Engraving
 70
    64
 62
     7
  6
CONTINUOUS
  0
LAYER
  2
Reference_points
 70
    64
 62
     1
  6
CONTINUOUS
  0
ENDTAB
  0
TABLE
  2
STYLE
 70
     1
  0
STYLE
  2
TXT
 70
    64
 40
0.0
 41
1.0
 50
0.0
 71
     0
 42
3.500000
  3
TXT
  0
ENDTAB
  0
ENDSEC
  0
SECTION
  2
BLOCKS
  0
ENDSEC
  0
SECTION
  2
ENTITIES
  0
LINE
  8
Contour
 62
   7
 39
0.100
  6
CONTINUOUS
 10
25.06000
 20
128.40000
 30
 0
 11
25.06000
 21
0.00000
  0
LINE
  8
Contour
 62
   7
 39
0.100
  6
CONTINUOUS
 10
25.06000
 20
0.00000
 30
 0
 11
0.00000
 21
0.00000
  0
LINE
  8
Contour
 62
   7
 39
0.100
  6
CONTINUOUS
 10
0.00000
 20
0.00000
 30
 0
 11
0.00000
 21
128.40000
  0
LINE
  8
Contour
 62
   7
 39
0.100
  6
CONTINUOUS
 10
0.00000
 20
128.40000
 30
 0
 11
25.06000
 21
128.40000
  0
ARC
  8
Engraving
 62
   7
 39
0.400
  6
CONTINUOUS
 10
4.27090
 20
77.69154
 30
 0
 40
0.67574
 50
36.73449
 51
77.79505
  0
ARC
  8
Engraving
 62
   7
 39
0.400
  6
CONTINUOUS
 10
4.07068
 20
76.78058
 30
 0
 40
1.60844
 50
77.68434
 51
106.40648
  0
ARC
  8
Engraving
 62
   7
 39
0.400
  6
CONTINUOUS
 10
3.83582
 20
77.59483
 30
 0
 40
0.76101
 50
106.75938
 51
144.31597
  0
ARC
  8
Engraving
 62
   7
 39
0.400
  6
CONTINUOUS
 10
3.64096
 20
77.73491
 30
 0
 40
0.52103
 50
144.32844
 51
251.30934
  0
LINE
  8
Engraving
 62
   7
 39
0.400
  6
CONTINUOUS
 10
3.47399
 20
77.24137
 30
 0
 11
4.47071
 21
76.89963
  0
ARC
  8
Engraving
 62
   7
 39
0.400
  6
CONTINUOUS
 10
4.30374
 20
76.40609
 30
 0
 40
0.52103
 50
-35.67156
 51
71.30934
  0
ARC
  8
Engraving
 62
   7
 39
0.400
  6
CONTINUOUS
 10
4.10888
 20
76.54617
 30
 0
 40
0.76101
 50
286.75938
 51
324.31597
  0
ARC
  8
Engraving
 62
   7
 39
0.400
  6
CONTINUOUS
 10
3.87402
 20
77.36042
 30
 0
 40
1.60844
 50
257.68434
 51
286.40648
  0
ARC
  8
Engraving
 62
   7
 39
0.400
  6
CONTINUOUS
 10
3.67380
 20
76.44946
 30
 0
 40
0.67574
 50
216.73449
 51
257.79505
  0
LINE
  8
Engraving
 62
   7
 39
0.400
  6
CONTINUOUS
 10
5.49673
 20
78.35200
 30
 0
 11
5.49673
 21
75.78900
  0
LINE
  8
Engraving
 62
   7
 39
0.400
  6
CONTINUOUS
 10
7.37580
 20
77.07050
 30
 0
 11
8.00231
 21
77.07050
  0
LINE
  8
Engraving
 62
   7
 39
0.400
  6
CONTINUOUS
 10
8.00231
 20
77.07050
 30
 0
 11
8.00231
 21
76.64333
  0
ARC
  8
Engraving
 62
   7
 39
0.400
  6
CONTINUOUS
 10
7.09102
 20
76.64333
 30
 0
 40
0.91129
 50
-180.00000
 51
0.00000
  0
LINE
  8
Engraving
 62
   7
 39
0.400
  6
CONTINUOUS
 10
6.17973
 20
76.64333
 30
 0
 11
6.17973
 21
77.49767
  0
ARC
  8
Engraving
 62
   7
 39
0.400
  6
CONTINUOUS
 10
7.05737
 20
77.51836
 30
 0
 40
0.87788
 50
31.86328
 51
181.35068
  0
ARC
  8
Engraving
 62
   7
 39
0.400
  6
CONTINUOUS
 10
4.37441
 20
47.09923
 30
 0
 40
0.83504
 50
28.82122
 51
181.68902
  0
LINE
  8
Engraving
 62
   7
 39
0.400
  6
CONTINUOUS
 10
3.53973
 20
47.07462
 30
 0
 11
3.53973
 21
46.10638
  0
ARC
  8
Engraving
 62
   7
 39
0.400
  6
CONTINUOUS
 10
4.39556
 20
46.10780
 30
 0
 40
0.85583
 50
180.09515
 51
338.42706
  0
LINE
  8
Engraving
 62
   7
 39
0.400
  6
CONTINUOUS
 10
5.87573
 20
47.87200
 30
 0
 11
6.73007
 21
45.30900
  0
LINE
  8
Engraving
 62
   7
 39
0.400
  6
CONTINUOUS
 10
6.73007
 20
45.30900
 30
 0
 11
7.58440
 21
47.87200
  0
ARC
  8
Engraving
 62
   7
 39
0.400
  6
CONTINUOUS
 10
3.16902
 20
15.68333
 30
 0
 40
0.91129
 50
180.00000
 51
360.00000
  0
LINE
  8
Engraving
 62
   7
 39
0.400
  6
CONTINUOUS
 10
4.08031
 20
15.68333
 30
 0
 11
4.08031
 21
16.53767
  0
ARC
  8
Engraving
 62
   7
 39
0.400
  6
CONTINUOUS
 10
3.16902
 20
16.53767
 30
 0
 40
0.91129
 50
0.00000
 51
180.00000
  0
LINE
  8
Engraving
 62
   7
 39
0.400
  6
CONTINUOUS
 10
2.25773
 20
16.53767
 30
 0
 11
2.25773
 21
15.68333
  0
LINE
  8
Engraving
 62
   7
 39
0.400
  6
CONTINUOUS
 10
4.76473
 20
17.39200
 30
 0
 11
4.76473
 21
15.62638
  0
ARC
  8
Engraving
 62
   7
 39
0.400
  6
CONTINUOUS
 10
5.61907
 20
15.62638
 30
 0
 40
0.85433
 50
180.00000
 51
360.00000
  0
LINE
  8
Engraving
 62
   7
 39
0.400
  6
CONTINUOUS
 10
6.47340
 20
15.62638
 30
 0
 11
6.47340
 21
17.39200
  0
LINE
  8
Engraving
 62
   7
 39
0.400
  6
CONTINUOUS
 10
7.15673
 20
17.39200
 30
 0
 11
8.86540
 21
17.39200
  0
LINE
  8
Engraving
 62
   7
 39
0.400
  6
CONTINUOUS
 10
8.86540
 20
17.39200
 30
 0
 11
8.01107
 21
17.39200
  0
LINE
  8
Engraving
 62
   7
 39
0.400
  6
CONTINUOUS
 10
8.01107
 20
17.39200
 30
 0
 11
8.01107
 21
14.82900
  0
LINE
  8
Engraving
 62
   7
 39
0.400
  6
CONTINUOUS
 10
14.66873
 20
47.87200
 30
 0
 11
14.66873
 21
45.30900
  0
LINE
  8
Engraving
 62
   7
 39
0.400
  6
CONTINUOUS
 10
14.66873
 20
45.30900
 30
 0
 11
16.09262
 21
45.30900
  0
LINE
  8
Engraving
 62
   7
 39
0.400
  6
CONTINUOUS
 10
16.77673
 20
47.87200
 30
 0
 11
17.63107
 21
45.30900
  0
LINE
  8
Engraving
 62
   7
 39
0.400
  6
CONTINUOUS
 10
17.63107
 20
45.30900
 30
 0
 11
18.48540
 21
47.87200
  0
LINE
  8
Engraving
 62
   7
 39
0.400
  6
CONTINUOUS
 10
19.16873
 20
47.87200
 30
 0
 11
19.16873
 21
45.30900
  0
LINE
  8
Engraving
 62
   7
 39
0.400
  6
CONTINUOUS
 10
19.16873
 20
45.30900
 30
 0
 11
20.59262
 21
45.30900
  0
LINE
  8
Engraving
 62
   7
 39
0.400
  6
CONTINUOUS
 10
11.59733
 20
124.21900
 30
 0
 11
11.59733
 21
126.78200
  0
LINE
  8
Engraving
 62
   7
 39
0.400
  6
CONTINUOUS
 10
10.91117
 20
126.78200
 30
 0
 11
12.30367
 21
126.78200
  0
LINE
  8
Engraving
 62
   7
 39
0.400
  6
CONTINUOUS
 10
12.82935
 20
126.78200
 30
 0
 11
12.82935
 21
124.21900
  0
LINE
  8
Engraving
 62
   7
 39
0.400
  6
CONTINUOUS
 10
14.08058
 20
126.78200
 30
 0
 11
14.08058
 21
124.21900
  0
LINE
  8
Engraving
 62
   7
 39
0.400
  6
CONTINUOUS
 10
12.82935
 20
125.53077
 30
 0
 11
14.08058
 21
125.53077
  0
LINE
  8
Engraving
 62
   7
 39
0.400
  6
CONTINUOUS
 10
14.60535
 20
124.21900
 30
 0
 11
15.33187
 21
126.78200
  0
LINE
  8
Engraving
 62
   7
 39
0.400
  6
CONTINUOUS
 10
15.33187
 20
126.78200
 30
 0
 11
15.41260
 21
126.78200
  0
LINE
  8
Engraving
 62
   7
 39
0.400
  6
CONTINUOUS
 10
15.41260
 20
126.78200
 30
 0
 11
16.13912
 21
124.21900
  0
LINE
  8
Engraving
 62
   7
 39
0.400
  6
CONTINUOUS
 10
14.82735
 20
125.00606
 30
 0
 11
15.91713
 21
125.00606
  0
LINE
  8
Engraving
 62
   7
 39
0.400
  6
CONTINUOUS
 10
17.33033
 20
124.21900
 30
 0
 11
17.33033
 21
126.78200
  0
LINE
  8
Engraving
 62
   7
 39
0.400
  6
CONTINUOUS
 10
16.64417
 20
126.78200
 30
 0
 11
18.03667
 21
126.78200
  0
ARC
  8
Engraving
 62
   7
 39
0.400
  6
CONTINUOUS
 10
19.14364
 20
126.23006
 30
 0
 40
0.58860
 50
103.59010
 51
197.25422
  0
ARC
  8
Engraving
 62
   7
 39
0.400
  6
CONTINUOUS
 10
19.16263
 20
126.27203
 30
 0
 40
0.55300
 50
6.85332
 51
106.52541
  0
ARC
  8
Engraving
 62
   7
 39
0.400
  6
CONTINUOUS
 10
18.48917
 20
126.15672
 30
 0
 40
1.23587
 50
-32.62504
 51
8.43552
  0
ARC
  8
Engraving
 62
   7
 39
0.400
  6
CONTINUOUS
 10
17.00091
 20
127.00927
 30
 0
 40
2.95016
 50
312.79903
 51
329.01325
  0
LINE
  8
Engraving
 62
   7
 39
0.400
  6
CONTINUOUS
 10
19.00534
 20
124.84461
 30
 0
 11
18.54117
 21
124.36027
  0
LINE
  8
Engraving
 62
   7
 39
0.400
  6
CONTINUOUS
 10
18.54117
 20
124.36027
 30
 0
 11
18.54117
 21
124.21900
  0
LINE
  8
Engraving
 62
   7
 39
0.400
  6
CONTINUOUS
 10
18.54117
 20
124.21900
 30
 0
 11
19.73186
 21
124.21900
  0
LINE
  8
Engraving
 62
   7
 39
0.400
  6
CONTINUOUS
 10
19.73186
 20
124.21900
 30
 0
 11
18.54117
 21
124.21900
  0
LINE
  8
Engraving
 62
   7
 39
0.400
  6
CONTINUOUS
 10
20.25635
 20
126.27747
 30
 0
 11
20.51871
 21
126.45910
  0
LINE
  8
Engraving
 62
   7
 39
0.400
  6
CONTINUOUS
 10
20.51871
 20
126.45910
 30
 0
 11
20.78106
 21
126.78200
  0
LINE
  8
Engraving
 62
   7
 39
0.400
  6
CONTINUOUS
 10
20.78106
 20
126.78200
 30
 0
 11
20.78106
 21
124.21900
  0
LINE
  8
Engraving
 62
   7
 39
0.400
  6
CONTINUOUS
 10
21.58789
 20
125.59231
 30
 0
 11
22.13278
 21
125.59231
  0
LINE
  8
Engraving
 62
   7
 39
0.400
  6
CONTINUOUS
 10
22.13278
 20
125.59231
 30
 0
 11
22.27405
 21
125.69322
  0
LINE
  8
Engraving
 62
   7
 39
0.400
  6
CONTINUOUS
 10
22.27405
 20
125.69322
 30
 0
 11
22.35477
 21
125.79413
  0
LINE
  8
Engraving
 62
   7
 39
0.400
  6
CONTINUOUS
 10
22.35477
 20
125.79413
 30
 0
 11
22.41531
 21
125.95557
  0
LINE
  8
Engraving
 62
   7
 39
0.400
  6
CONTINUOUS
 10
22.41531
 20
125.95557
 30
 0
 11
22.41531
 21
126.33902
  0
LINE
  8
Engraving
 62
   7
 39
0.400
  6
CONTINUOUS
 10
22.41531
 20
126.33902
 30
 0
 11
22.39513
 21
126.46010
  0
LINE
  8
Engraving
 62
   7
 39
0.400
  6
CONTINUOUS
 10
22.39513
 20
126.46010
 30
 0
 11
22.31441
 21
126.60137
  0
LINE
  8
Engraving
 62
   7
 39
0.400
  6
CONTINUOUS
 10
22.31441
 20
126.60137
 30
 0
 11
22.21350
 21
126.72246
  0
LINE
  8
Engraving
 62
   7
 39
0.400
  6
CONTINUOUS
 10
22.21350
 20
126.72246
 30
 0
 11
22.07224
 21
126.78300
  0
LINE
  8
Engraving
 62
   7
 39
0.400
  6
CONTINUOUS
 10
22.07224
 20
126.78300
 30
 0
 11
21.95115
 21
126.80318
  0
LINE
  8
Engraving
 62
   7
 39
0.400
  6
CONTINUOUS
 10
21.95115
 20
126.80318
 30
 0
 11
21.80988
 21
126.80318
  0
LINE
  8
Engraving
 62
   7
 39
0.400
  6
CONTINUOUS
 10
21.80988
 20
126.80318
 30
 0
 11
21.62825
 21
126.78300
  0
LINE
  8
Engraving
 62
   7
 39
0.400
  6
CONTINUOUS
 10
21.62825
 20
126.78300
 30
 0
 11
21.50717
 21
126.70228
  0
LINE
  8
Engraving
 62
   7
 39
0.400
  6
CONTINUOUS
 10
21.50717
 20
126.70228
 30
 0
 11
21.40626
 21
126.60137
  0
LINE
  8
Engraving
 62
   7
 39
0.400
  6
CONTINUOUS
 10
21.40626
 20
126.60137
 30
 0
 11
21.34572
 21
126.48028
  0
LINE
  8
Engraving
 62
   7
 39
0.400
  6
CONTINUOUS
 10
21.34572
 20
126.48028
 30
 0
 11
21.32554
 21
126.31883
  0
LINE
  8
Engraving
 62
   7
 39
0.400
  6
CONTINUOUS
 10
21.32554
 20
126.31883
 30
 0
 11
21.32554
 21
125.95557
  0
LINE
  8
Engraving
 62
   7
 39
0.400
  6
CONTINUOUS
 10
21.32554
 20
125.95557
 30
 0
 11
21.36590
 21
125.79413
  0
LINE
  8
Engraving
 62
   7
 39
0.400
  6
CONTINUOUS
 10
21.36590
 20
125.79413
 30
 0
 11
21.42644
 21
125.69322
  0
LINE
  8
Engraving
 62
   7
 39
0.400
  6
CONTINUOUS
 10
21.42644
 20
125.69322
 30
 0
 11
21.58789
 21
125.59231
  0
LINE
  8
Engraving
 62
   7
 39
0.400
  6
CONTINUOUS
 10
21.58789
 20
125.59231
 30
 0
 11
21.42644
 21
125.49141
  0
LINE
  8
Engraving
 62
   7
 39
0.400
  6
CONTINUOUS
 10
21.42644
 20
125.49141
 30
 0
 11
21.34572
 21
125.39050
  0
LINE
  8
Engraving
 62
   7
 39
0.400
  6
CONTINUOUS
 10
21.34572
 20
125.39050
 30
 0
 11
21.28517
 21
125.18869
  0
LINE
  8
Engraving
 62
   7
 39
0.400
  6
CONTINUOUS
 10
21.28517
 20
125.18869
 30
 0
 11
21.28517
 21
124.98688
  0
LINE
  8
Engraving
 62
   7
 39
0.400
  6
CONTINUOUS
 10
21.28517
 20
124.98688
 30
 0
 11
21.28517
 21
124.74471
  0
LINE
  8
Engraving
 62
   7
 39
0.400
  6
CONTINUOUS
 10
21.28517
 20
124.74471
 30
 0
 11
21.32554
 21
124.52272
  0
LINE
  8
Engraving
 62
   7
 39
0.400
  6
CONTINUOUS
 10
21.32554
 20
124.52272
 30
 0
 11
21.40626
 21
124.38145
  0
LINE
  8
Engraving
 62
   7
 39
0.400
  6
CONTINUOUS
 10
21.40626
 20
124.38145
 30
 0
 11
21.50717
 21
124.28054
  0
LINE
  8
Engraving
 62
   7
 39
0.400
  6
CONTINUOUS
 10
21.50717
 20
124.28054
 30
 0
 11
21.64843
 21
124.22000
  0
LINE
  8
Engraving
 62
   7
 39
0.400
  6
CONTINUOUS
 10
21.64843
 20
124.22000
 30
 0
 11
21.80988
 21
124.19982
  0
LINE
  8
Engraving
 62
   7
 39
0.400
  6
CONTINUOUS
 10
21.80988
 20
124.19982
 30
 0
 11
21.95115
 21
124.19982
  0
LINE
  8
Engraving
 62
   7
 39
0.400
  6
CONTINUOUS
 10
21.95115
 20
124.19982
 30
 0
 11
22.11260
 21
124.22000
  0
LINE
  8
Engraving
 62
   7
 39
0.400
  6
CONTINUOUS
 10
22.11260
 20
124.22000
 30
 0
 11
22.25387
 21
124.32091
  0
LINE
  8
Engraving
 62
   7
 39
0.400
  6
CONTINUOUS
 10
22.25387
 20
124.32091
 30
 0
 11
22.37495
 21
124.46217
  0
LINE
  8
Engraving
 62
   7
 39
0.400
  6
CONTINUOUS
 10
22.37495
 20
124.46217
 30
 0
 11
22.41531
 21
124.62362
  0
LINE
  8
Engraving
 62
   7
 39
0.400
  6
CONTINUOUS
 10
22.41531
 20
124.62362
 30
 0
 11
22.43550
 21
124.70435
  0
LINE
  8
Engraving
 62
   7
 39
0.400
  6
CONTINUOUS
 10
22.43550
 20
124.70435
 30
 0
 11
22.43550
 21
125.18869
  0
LINE
  8
Engraving
 62
   7
 39
0.400
  6
CONTINUOUS
 10
22.43550
 20
125.18869
 30
 0
 11
22.41531
 21
125.32996
  0
LINE
  8
Engraving
 62
   7
 39
0.400
  6
CONTINUOUS
 10
22.41531
 20
125.32996
 30
 0
 11
22.35477
 21
125.43087
  0
LINE
  8
Engraving
 62
   7
 39
0.400
  6
CONTINUOUS
 10
22.35477
 20
125.43087
 30
 0
 11
22.27405
 21
125.51159
  0
LINE
  8
Engraving
 62
   7
 39
0.400
  6
CONTINUOUS
 10
22.27405
 20
125.51159
 30
 0
 11
22.13278
 21
125.59231
  0
LINE
  8
Engraving
 62
   7
 39
0.400
  6
CONTINUOUS
 10
22.93917
 20
125.59231
 30
 0
 11
22.93917
 21
124.70435
  0
LINE
  8
Engraving
 62
   7
 39
0.400
  6
CONTINUOUS
 10
22.93917
 20
124.70435
 30
 0
 11
22.99972
 21
124.48235
  0
LINE
  8
Engraving
 62
   7
 39
0.400
  6
CONTINUOUS
 10
22.99972
 20
124.48235
 30
 0
 11
23.10062
 21
124.34109
  0
LINE
  8
Engraving
 62
   7
 39
0.400
  6
CONTINUOUS
 10
23.10062
 20
124.34109
 30
 0
 11
23.24189
 21
124.24018
  0
LINE
  8
Engraving
 62
   7
 39
0.400
  6
CONTINUOUS
 10
23.24189
 20
124.24018
 30
 0
 11
23.44370
 21
124.19982
  0
LINE
  8
Engraving
 62
   7
 39
0.400
  6
CONTINUOUS
 10
23.44370
 20
124.19982
 30
 0
 11
23.58497
 21
124.19982
  0
LINE
  8
Engraving
 62
   7
 39
0.400
  6
CONTINUOUS
 10
23.58497
 20
124.19982
 30
 0
 11
23.78678
 21
124.24018
  0
LINE
  8
Engraving
 62
   7
 39
0.400
  6
CONTINUOUS
 10
23.78678
 20
124.24018
 30
 0
 11
23.94823
 21
124.36127
  0
LINE
  8
Engraving
 62
   7
 39
0.400
  6
CONTINUOUS
 10
23.94823
 20
124.36127
 30
 0
 11
24.06931
 21
124.52272
  0
LINE
  8
Engraving
 62
   7
 39
0.400
  6
CONTINUOUS
 10
24.06931
 20
124.52272
 30
 0
 11
24.08950
 21
124.70435
  0
LINE
  8
Engraving
 62
   7
 39
0.400
  6
CONTINUOUS
 10
24.08950
 20
124.70435
 30
 0
 11
24.08950
 21
126.29865
  0
LINE
  8
Engraving
 62
   7
 39
0.400
  6
CONTINUOUS
 10
24.08950
 20
126.29865
 30
 0
 11
24.04913
 21
126.50046
  0
LINE
  8
Engraving
 62
   7
 39
0.400
  6
CONTINUOUS
 10
24.04913
 20
126.50046
 30
 0
 11
23.94823
 21
126.66191
  0
LINE
  8
Engraving
 62
   7
 39
0.400
  6
CONTINUOUS
 10
23.94823
 20
126.66191
 30
 0
 11
23.74642
 21
126.78300
  0
LINE
  8
Engraving
 62
   7
 39
0.400
  6
CONTINUOUS
 10
23.74642
 20
126.78300
 30
 0
 11
23.58497
 21
126.80318
  0
LINE
  8
Engraving
 62
   7
 39
0.400
  6
CONTINUOUS
 10
23.58497
 20
126.80318
 30
 0
 11
23.44370
 21
126.80318
  0
LINE
  8
Engraving
 62
   7
 39
0.400
  6
CONTINUOUS
 10
23.44370
 20
126.80318
 30
 0
 11
23.24189
 21
126.76282
  0
LINE
  8
Engraving
 62
   7
 39
0.400
  6
CONTINUOUS
 10
23.24189
 20
126.76282
 30
 0
 11
23.10062
 21
126.68209
  0
LINE
  8
Engraving
 62
   7
 39
0.400
  6
CONTINUOUS
 10
23.10062
 20
126.68209
 30
 0
 11
22.97954
 21
126.52065
  0
LINE
  8
Engraving
 62
   7
 39
0.400
  6
CONTINUOUS
 10
22.97954
 20
126.52065
 30
 0
 11
22.93917
 21
126.29865
  0
LINE
  8
Engraving
 62
   7
 39
0.400
  6
CONTINUOUS
 10
22.93917
 20
126.29865
 30
 0
 11
22.93917
 21
125.59231
  0
LINE
  8
Engraving
 62
   7
 39
0.400
  6
CONTINUOUS
 10
8.84673
 20
103.06700
 30
 0
 11
9.70107
 21
101.78550
  0
LINE
  8
Engraving
 62
   7
 39
0.400
  6
CONTINUOUS
 10
9.70107
 20
101.78550
 30
 0
 11
9.70107
 21
100.50400
  0
LINE
  8
Engraving
 62
   7
 39
0.400
  6
CONTINUOUS
 10
9.70107
 20
100.50400
 30
 0
 11
9.70107
 21
101.78550
  0
LINE
  8
Engraving
 62
   7
 39
0.400
  6
CONTINUOUS
 10
9.70107
 20
101.78550
 30
 0
 11
10.55540
 21
103.06700
  0
LINE
  8
Engraving
 62
   7
 39
0.400
  6
CONTINUOUS
 10
11.23973
 20
101.21594
 30
 0
 11
11.23973
 21
101.50072
  0
ARC
  8
Engraving
 62
   7
 39
0.400
  6
CONTINUOUS
 10
11.95168
 20
101.50072
 30
 0
 40
0.71194
 50
0.00000
 51
180.00000
  0
LINE
  8
Engraving
 62
   7
 39
0.400
  6
CONTINUOUS
 10
12.66362
 20
101.50072
 30
 0
 11
12.66362
 21
101.21594
  0
ARC
  8
Engraving
 62
   7
 39
0.400
  6
CONTINUOUS
 10
11.95168
 20
101.21594
 30
 0
 40
0.71194
 50
-180.00000
 51
0.00000
  0
LINE
  8
Engraving
 62
   7
 39
0.400
  6
CONTINUOUS
 10
13.34673
 20
100.50400
 30
 0
 11
13.34673
 21
102.21267
  0
LINE
  8
Engraving
 62
   7
 39
0.400
  6
CONTINUOUS
 10
13.34673
 20
102.21267
 30
 0
 11
13.34673
 21
101.64311
  0
ARC
  8
Engraving
 62
   7
 39
0.400
  6
CONTINUOUS
 10
13.97604
 20
101.64313
 30
 0
 40
0.62931
 50
140.69073
 51
180.00162
  0
ARC
  8
Engraving
 62
   7
 39
0.400
  6
CONTINUOUS
 10
13.80238
 20
101.78427
 30
 0
 40
0.40553
 50
39.42406
 51
140.57594
  0
LINE
  8
Engraving
 62
   7
 39
0.400
  6
CONTINUOUS
 10
14.76973
 20
103.06700
 30
 0
 11
14.76973
 21
100.50400
  0
LINE
  8
Engraving
 62
   7
 39
0.400
  6
CONTINUOUS
 10
14.76973
 20
100.50400
 30
 0
 11
14.76973
 21
101.07356
  0
LINE
  8
Engraving
 62
   7
 39
0.400
  6
CONTINUOUS
 10
14.76973
 20
101.07356
 30
 0
 11
16.19362
 21
102.21267
  0
LINE
  8
Engraving
 62
   7
 39
0.400
  6
CONTINUOUS
 10
16.19362
 20
102.21267
 30
 0
 11
15.33929
 21
101.52920
  0
LINE
  8
Engraving
 62
   7
 39
0.400
  6
CONTINUOUS
 10
15.33929
 20
101.52920
 30
 0
 11
16.19362
 21
100.50400
  0
LINE
  8
Engraving
 62
   7
 39
0.400
  6
CONTINUOUS
 10
5.89973
 20
96.98800
 30
 0
 11
5.89973
 21
99.55100
  0
LINE
  8
Engraving
 62
   7
 39
0.400
  6
CONTINUOUS
 10
5.89973
 20
99.55100
 30
 0
 11
6.89646
 21
97.69994
  0
LINE
  8
Engraving
 62
   7
 39
0.400
  6
CONTINUOUS
 10
6.89646
 20
97.69994
 30
 0
 11
7.89318
 21
99.55100
  0
LINE
  8
Engraving
 62
   7
 39
0.400
  6
CONTINUOUS
 10
7.89318
 20
99.55100
 30
 0
 11
7.89318
 21
96.98800
  0
LINE
  8
Engraving
 62
   7
 39
0.400
  6
CONTINUOUS
 10
8.57673
 20
97.69994
 30
 0
 11
8.57673
 21
97.98472
  0
ARC
  8
Engraving
 62
   7
 39
0.400
  6
CONTINUOUS
 10
9.28868
 20
97.98472
 30
 0
 40
0.71194
 50
0.00000
 51
180.00000
  0
LINE
  8
Engraving
 62
   7
 39
0.400
  6
CONTINUOUS
 10
10.00062
 20
97.98472
 30
 0
 11
10.00062
 21
97.69994
  0
ARC
  8
Engraving
 62
   7
 39
0.400
  6
CONTINUOUS
 10
9.28868
 20
97.69994
 30
 0
 40
0.71194
 50
-180.00000
 51
0.00000
  0
LINE
  8
Engraving
 62
   7
 39
0.400
  6
CONTINUOUS
 10
12.10862
 20
99.55100
 30
 0
 11
12.10862
 21
97.69994
  0
ARC
  8
Engraving
 62
   7
 39
0.400
  6
CONTINUOUS
 10
11.39668
 20
97.67147
 30
 0
 40
0.71251
 50
-177.70939
 51
2.29061
  0
LINE
  8
Engraving
 62
   7
 39
0.400
  6
CONTINUOUS
 10
10.68473
 20
97.64299
 30
 0
 11
10.68473
 21
97.98472
  0
ARC
  8
Engraving
 62
   7
 39
0.400
  6
CONTINUOUS
 10
11.39668
 20
97.98472
 30
 0
 40
0.71194
 50
0.00000
 51
180.00000
  0
LINE
  8
Engraving
 62
   7
 39
0.400
  6
CONTINUOUS
 10
12.10862
 20
97.98472
 30
 0
 11
12.10862
 21
96.98800
  0
LINE
  8
Engraving
 62
   7
 39
0.400
  6
CONTINUOUS
 10
12.79273
 20
98.69667
 30
 0
 11
12.79273
 21
97.69994
  0
ARC
  8
Engraving
 62
   7
 39
0.400
  6
CONTINUOUS
 10
13.50468
 20
97.69994
 30
 0
 40
0.71194
 50
180.00000
 51
360.00000
  0
LINE
  8
Engraving
 62
   7
 39
0.400
  6
CONTINUOUS
 10
14.21662
 20
97.69994
 30
 0
 11
14.21662
 21
96.98800
  0
LINE
  8
Engraving
 62
   7
 39
0.400
  6
CONTINUOUS
 10
14.21662
 20
96.98800
 30
 0
 11
14.21662
 21
98.69667
  0
LINE
  8
Engraving
 62
   7
 39
0.400
  6
CONTINUOUS
 10
14.89973
 20
99.55100
 30
 0
 11
14.89973
 21
97.32973
  0
ARC
  8
Engraving
 62
   7
 39
0.400
  6
CONTINUOUS
 10
15.24705
 20
97.32964
 30
 0
 40
0.34731
 50
179.98432
 51
259.62682
  0
LINE
  8
Engraving
 62
   7
 39
0.400
  6
CONTINUOUS
 10
17.34858
 20
98.69667
 30
 0
 11
17.34858
 21
97.69994
  0
ARC
  8
Engraving
 62
   7
 39
0.400
  6
CONTINUOUS
 10
16.60816
 20
97.69994
 30
 0
 40
0.74042
 50
-180.00000
 51
0.00000
  0
LINE
  8
Engraving
 62
   7
 39
0.400
  6
CONTINUOUS
 10
15.86773
 20
97.69994
 30
 0
 11
15.86773
 21
97.98472
  0
ARC
  8
Engraving
 62
   7
 39
0.400
  6
CONTINUOUS
 10
16.60816
 20
97.98472
 30
 0
 40
0.74042
 50
0.00000
 51
180.00000
  0
LINE
  8
Engraving
 62
   7
 39
0.400
  6
CONTINUOUS
 10
17.34858
 20
97.98472
 30
 0
 11
17.34858
 21
97.30126
  0
ARC
  8
Engraving
 62
   7
 39
0.400
  6
CONTINUOUS
 10
17.76146
 20
97.33955
 30
 0
 40
0.41466
 50
185.29897
 51
260.11981
  0
LINE
  8
Engraving
 62
   7
 39
0.400
  6
CONTINUOUS
 10
18.37373
 20
96.98900
 30
 0
 11
18.37373
 21
98.69767
  0
LINE
  8
Engraving
 62
   7
 39
0.400
  6
CONTINUOUS
 10
18.37373
 20
98.69767
 30
 0
 11
18.37373
 21
98.12811
  0
ARC
  8
Engraving
 62
   7
 39
0.400
  6
CONTINUOUS
 10
19.00304
 20
98.12813
 30
 0
 40
0.62931
 50
140.69073
 51
180.00162
  0
ARC
  8
Engraving
 62
   7
 39
0.400
  6
CONTINUOUS
 10
18.82938
 20
98.26927
 30
 0
 40
0.40553
 50
39.42406
 51
140.57594
  0
CIRCLE
  8
Contour
 62
   7
 39
0.100
  6
CONTINUOUS
 10
7.50000
 20
125.50000
 30
 0
 40
1.50000
  0
CIRCLE
  8
Contour
 62
   7
 39
0.100
  6
CONTINUOUS
 10
7.50000
 20
3.00000
 30
 0
 40
1.50000
  0
CIRCLE
  8
Contour
 62
   7
 39
0.100
  6
CONTINUOUS
 10
5.56000
 20
23.73000
 30
 0
 40
3.25000
  0
CIRCLE
  8
Contour
 62
   7
 39
0.100
  6
CONTINUOUS
 10
5.56000
 20
38.97000
 30
 0
 40
3.25000
  0
CIRCLE
  8
Contour
 62
   7
 39
0.100
  6
CONTINUOUS
 10
5.56000
 20
54.21000
 30
 0
 40
3.25000
  0
CIRCLE
  8
Contour
 62
   7
 39
0.100
  6
CONTINUOUS
 10
5.56000
 20
69.45000
 30
 0
 40
3.25000
  0
CIRCLE
  8
Contour
 62
   7
 39
0.100
  6
CONTINUOUS
 10
5.56000
 20
84.69000
 30
 0
 40
3.25000
  0
CIRCLE
  8
Contour
 62
   7
 39
0.100
  6
CONTINUOUS
 10
17.63000
 20
54.21000
 30
 0
 40
3.75000
  0
CIRCLE
  8
Contour
 62
   7
 39
0.100
  6
CONTINUOUS
 10
17.63000
 20
38.97000
 30
 0
 40
3.75000
  0
ENDSEC
  0
EOF
